<svg xmlns="http://www.w3.org/2000/svg" xmlns:xlink="http://www.w3.org/1999/xlink" preserveAspectRatio="xMidYMid" width="53" height="63" viewBox="0 0 53 63">
  <defs>
    <style>
      .cls-1 {
        stroke: #ed1c23;
        stroke-width: 3px;
        fill: none;
      }

      .cls-2 {
        fill: #ed1c23;
        fill-rule: evenodd;
      }
    </style>
  </defs>
  <g>
    <rect x="1.5" y="1.5" width="50" height="60" rx="8" ry="8" class="cls-1"/>
    <path d="M41.000,32.000 L22.000,32.000 C21.448,32.000 21.000,31.552 21.000,31.000 C21.000,30.448 21.448,30.000 22.000,30.000 L41.000,30.000 C41.552,30.000 42.000,30.448 42.000,31.000 C42.000,31.552 41.552,32.000 41.000,32.000 ZM41.000,22.000 L22.000,22.000 C21.448,22.000 21.000,21.552 21.000,21.000 C21.000,20.448 21.448,20.000 22.000,20.000 L41.000,20.000 C41.552,20.000 42.000,20.448 42.000,21.000 C42.000,21.552 41.552,22.000 41.000,22.000 ZM12.500,23.036 C12.109,23.426 11.476,23.426 11.086,23.036 L8.964,20.914 C8.574,20.524 8.574,19.891 8.964,19.500 C9.355,19.109 9.988,19.109 10.379,19.500 L11.793,20.914 L14.621,18.086 C15.012,17.695 15.645,17.695 16.036,18.086 C16.426,18.476 16.426,19.109 16.036,19.500 L12.500,23.036 ZM12.000,30.000 C12.552,30.000 13.000,30.448 13.000,31.000 C13.000,31.552 12.552,32.000 12.000,32.000 C11.448,32.000 11.000,31.552 11.000,31.000 C11.000,30.448 11.448,30.000 12.000,30.000 ZM12.000,40.000 C12.552,40.000 13.000,40.448 13.000,41.000 C13.000,41.552 12.552,42.000 12.000,42.000 C11.448,42.000 11.000,41.552 11.000,41.000 C11.000,40.448 11.448,40.000 12.000,40.000 ZM22.000,40.000 L41.000,40.000 C41.552,40.000 42.000,40.448 42.000,41.000 C42.000,41.552 41.552,42.000 41.000,42.000 L22.000,42.000 C21.448,42.000 21.000,41.552 21.000,41.000 C21.000,40.448 21.448,40.000 22.000,40.000 Z" class="cls-2"/>
  </g>
</svg>
