<svg xmlns="http://www.w3.org/2000/svg" xmlns:xlink="http://www.w3.org/1999/xlink" preserveAspectRatio="xMidYMid" width="74.88" height="64.127" viewBox="0 0 74.88 64.127">
  <defs>
    <style>
      .cls-1, .cls-3 {
        stroke: #ed1c23;
        stroke-width: 3px;
        fill: none;
      }

      .cls-2 {
        fill: #ed1c23;
      }

      .cls-2, .cls-3 {
        fill-rule: evenodd;
      }
    </style>
  </defs>
  <g>
    <circle cx="22.5" cy="49.437" r="5" class="cls-1"/>
    <rect x="1.5" y="2.437" width="42" height="60" rx="8" ry="8" class="cls-1"/>
    <path d="M26.000,48.937 L26.000,46.937 L39.000,46.937 L39.000,48.937 L26.000,48.937 ZM16.000,10.937 L26.000,10.937 L26.000,12.937 L16.000,12.937 L16.000,10.937 ZM16.000,48.937 L3.000,48.937 L3.000,46.937 L16.000,46.937 L16.000,48.937 Z" class="cls-2"/>
    <path d="M50.795,58.751 L50.794,48.001 C50.799,45.865 52.604,44.124 54.820,44.124 L60.235,44.124 C60.311,43.858 60.389,43.583 60.472,43.292 C61.233,40.635 62.276,36.996 62.274,32.069 C62.274,27.130 61.230,23.486 60.469,20.825 C60.389,20.543 60.310,20.272 60.239,20.011 L56.607,20.014 L54.819,20.012 C52.599,20.012 50.797,18.271 50.796,16.133 L50.794,5.383 C50.794,3.247 52.601,1.506 54.820,1.506 L57.858,1.515 L57.858,1.598 C59.014,1.738 60.186,2.061 61.307,2.551 C62.366,3.027 63.279,3.578 64.096,4.229 C70.689,9.403 73.378,17.468 73.378,32.061 C73.377,52.232 64.487,59.597 64.100,59.911 C63.245,60.583 62.330,61.133 61.298,61.588 C60.185,62.075 59.015,62.398 57.861,62.539 L57.858,62.601 L54.820,62.633 C52.602,62.631 50.799,60.889 50.795,58.751 Z" class="cls-3"/>
  </g>
</svg>
