<svg xmlns="http://www.w3.org/2000/svg" xmlns:xlink="http://www.w3.org/1999/xlink" preserveAspectRatio="xMidYMid" width="20" height="20" viewBox="0 0 20 20">
  <defs>
    <style>
      .cls-1 {
        fill: #ed1c24;
        fill-rule: evenodd;
      }
    </style>
  </defs>
  <path d="M10.000,20.000 C4.477,20.000 0.000,15.523 0.000,10.000 C0.000,4.477 4.477,0.000 10.000,0.000 C15.523,0.000 20.000,4.477 20.000,10.000 C20.000,15.523 15.523,20.000 10.000,20.000 ZM15.841,6.666 C15.450,6.276 14.817,6.276 14.427,6.666 L9.477,11.616 L6.648,8.787 C6.258,8.397 5.625,8.397 5.234,8.787 C4.844,9.178 4.844,9.811 5.234,10.202 L8.770,13.737 C9.160,14.128 9.793,14.128 10.184,13.737 L15.841,8.080 C16.231,7.690 16.231,7.057 15.841,6.666 Z" class="cls-1"/>
</svg>
