<svg xmlns="http://www.w3.org/2000/svg" xmlns:xlink="http://www.w3.org/1999/xlink" preserveAspectRatio="xMidYMid" width="13.59" height="13.59" viewBox="0 0 13.59 13.59">
  <defs>
    <style>
      .cls-1 {
        fill: #ed1c24;
        fill-rule: evenodd;
      }
    </style>
  </defs>
  <path d="M8.901,6.780 L13.144,11.023 C13.730,11.608 13.730,12.558 13.144,13.144 C12.558,13.730 11.608,13.730 11.023,13.144 L6.780,8.901 L2.537,13.144 C1.952,13.730 1.002,13.730 0.416,13.144 C-0.170,12.558 -0.170,11.608 0.416,11.023 L4.659,6.780 L0.416,2.537 C-0.170,1.952 -0.170,1.002 0.416,0.416 C1.002,-0.170 1.952,-0.170 2.537,0.416 L6.780,4.659 L11.023,0.416 C11.608,-0.170 12.558,-0.170 13.144,0.416 C13.730,1.002 13.730,1.952 13.144,2.537 L8.901,6.780 Z" class="cls-1"/>
</svg>
