<svg xmlns="http://www.w3.org/2000/svg" xmlns:xlink="http://www.w3.org/1999/xlink" preserveAspectRatio="xMidYMid" width="40" height="40" viewBox="0 0 40 40">
  <defs>
    <style>
      .cls-1 {
        fill: #ed1c24;
        fill-rule: evenodd;
      }
    </style>
  </defs>
  <path d="M20.000,39.999 C8.954,39.999 -0.000,31.045 -0.000,19.999 C-0.000,8.953 8.954,-0.002 20.000,-0.002 C31.045,-0.002 40.000,8.953 40.000,19.999 C40.000,31.045 31.045,39.999 20.000,39.999 ZM20.000,1.999 C10.059,1.999 2.000,10.057 2.000,19.999 C2.000,29.940 10.059,37.999 20.000,37.999 C29.941,37.999 38.000,29.940 38.000,19.999 C38.000,10.057 29.941,1.999 20.000,1.999 ZM20.374,22.831 L20.398,23.455 L18.526,23.455 L18.478,22.831 C18.334,21.535 18.766,20.119 19.966,18.679 C21.047,17.407 21.647,16.471 21.647,15.391 C21.647,14.167 20.879,13.351 19.366,13.327 C18.502,13.327 17.542,13.615 16.942,14.071 L16.366,12.558 C17.158,11.982 18.526,11.598 19.798,11.598 C22.559,11.598 23.807,13.303 23.807,15.127 C23.807,16.759 22.895,17.935 21.743,19.303 C20.687,20.551 20.302,21.607 20.374,22.831 ZM19.438,25.304 C20.278,25.304 20.855,25.928 20.855,26.816 C20.855,27.656 20.302,28.304 19.414,28.304 C18.574,28.304 17.998,27.656 17.998,26.816 C17.998,25.928 18.598,25.304 19.438,25.304 Z" class="cls-1"/>
</svg>
