<svg xmlns="http://www.w3.org/2000/svg" xmlns:xlink="http://www.w3.org/1999/xlink" preserveAspectRatio="xMidYMid" width="40" height="40" viewBox="0 0 40 40">
  <defs>
    <style>
      .cls-1 {
        fill: #ee1d23;
        fill-rule: evenodd;
      }
    </style>
  </defs>
  <path d="M20.000,39.999 C8.954,39.999 -0.000,31.044 -0.000,19.998 C-0.000,8.953 8.954,-0.002 20.000,-0.002 C31.045,-0.002 40.000,8.953 40.000,19.998 C40.000,31.044 31.045,39.999 20.000,39.999 ZM20.000,1.999 C10.059,1.999 2.000,10.058 2.000,19.998 C2.000,29.940 10.059,37.999 20.000,37.999 C29.941,37.999 38.000,29.940 38.000,19.998 C38.000,10.058 29.941,1.999 20.000,1.999 ZM20.014,28.304 C19.174,28.304 18.598,27.656 18.598,26.816 C18.598,25.952 19.198,25.328 20.014,25.328 C20.878,25.328 21.430,25.952 21.430,26.816 C21.430,27.656 20.878,28.304 20.014,28.304 ZM19.198,23.383 L18.862,11.862 L21.166,11.862 L20.830,23.383 L19.198,23.383 Z" class="cls-1"/>
</svg>
