<svg xmlns="http://www.w3.org/2000/svg" xmlns:xlink="http://www.w3.org/1999/xlink" preserveAspectRatio="xMidYMid" width="19.12" height="11.09" viewBox="0 0 19.12 11.09">
  <defs>
    <style>
      .cls-1 {
        fill: #ed1c24;
        fill-rule: evenodd;
      }
    </style>
  </defs>
  <path d="M18.657,2.555 L10.705,10.508 C10.674,10.545 10.661,10.591 10.626,10.626 C10.328,10.924 9.936,11.067 9.546,11.062 C9.155,11.067 8.763,10.924 8.465,10.626 C8.430,10.591 8.417,10.545 8.386,10.508 L0.434,2.555 C-0.152,1.969 -0.152,1.020 0.434,0.434 C1.020,-0.152 1.969,-0.152 2.555,0.434 L9.546,7.424 L16.536,0.434 C17.122,-0.152 18.072,-0.152 18.657,0.434 C19.243,1.020 19.243,1.969 18.657,2.555 Z" class="cls-1"/>
</svg>
