<svg xmlns="http://www.w3.org/2000/svg" xmlns:xlink="http://www.w3.org/1999/xlink" preserveAspectRatio="xMidYMid" width="98.28" height="11.438" viewBox="0 0 98.28 11.438">
  <defs>
    <style>
      .cls-1 {
        fill: #ed1c24;
        fill-rule: evenodd;
      }
    </style>
  </defs>
  <path d="M97.772,5.414 C95.954,5.254 92.054,5.201 91.314,5.290 C90.534,5.396 91.446,7.381 92.700,7.481 C93.967,7.591 94.254,8.266 93.967,8.429 C93.696,8.614 90.534,8.759 89.419,8.759 C88.300,8.775 88.305,7.773 88.692,7.615 C89.079,7.465 89.419,7.170 89.419,7.099 C89.419,7.038 89.161,6.985 89.074,6.985 C88.979,6.985 88.661,7.090 88.563,6.906 C88.460,6.711 85.578,6.787 85.125,7.090 C84.684,7.388 81.565,7.214 81.444,6.874 L79.415,4.445 L81.278,4.445 L89.274,4.421 C96.626,4.600 99.574,5.570 97.772,5.414 ZM81.957,8.585 C81.868,8.508 81.781,8.087 81.765,7.960 C81.781,7.831 84.553,8.458 84.450,9.078 C84.436,9.190 84.414,9.261 84.392,9.306 C84.488,9.237 84.738,9.137 85.306,9.166 C86.621,9.227 87.688,9.801 87.688,9.993 C87.688,10.159 85.930,10.520 84.926,10.594 C83.920,10.644 82.605,11.219 82.436,11.424 L81.231,8.641 C81.672,8.623 81.979,8.609 81.957,8.585 ZM77.680,9.082 C77.177,9.545 74.363,8.251 73.573,8.206 C72.837,8.164 69.773,8.011 68.358,8.069 C66.985,8.135 62.453,9.993 61.421,9.453 C60.393,8.939 55.666,8.339 55.666,8.339 C55.703,8.362 55.163,8.829 55.163,9.008 C55.163,9.227 53.782,9.596 52.106,9.398 C50.404,9.203 45.869,8.578 45.656,8.410 C45.472,8.265 45.598,7.206 46.354,7.108 C47.121,7.000 52.291,7.129 55.640,7.393 C58.996,7.640 61.505,6.481 58.699,6.413 C55.895,6.370 46.389,5.994 43.783,5.751 L40.892,6.228 L38.054,6.750 C33.470,6.676 29.778,6.795 29.873,6.955 C29.936,7.129 27.644,7.438 26.355,7.129 C25.062,6.818 20.045,6.781 20.045,6.781 C20.045,6.850 20.245,6.995 20.490,6.979 L21.080,7.380 L21.431,7.619 C21.239,7.677 20.812,7.804 20.456,7.912 C20.100,7.986 18.453,7.988 18.367,7.872 C18.282,7.730 18.174,7.332 18.309,7.266 C18.504,7.177 18.722,6.676 18.351,6.676 C17.987,6.689 14.116,7.000 10.570,7.380 C8.799,7.567 6.106,7.063 3.909,6.502 C1.651,5.925 -0.083,5.324 0.012,5.324 C0.204,5.324 2.950,5.311 5.719,5.295 L9.366,4.953 L11.700,4.721 C15.985,4.811 22.870,4.734 26.991,4.529 C31.080,4.318 48.578,4.468 56.736,5.343 L61.218,5.028 C61.758,4.918 91.791,3.673 79.415,4.445 L81.231,8.641 C80.104,8.686 78.018,8.756 77.680,9.082 ZM50.546,2.300 C51.898,2.289 52.897,2.273 53.595,2.655 C52.235,2.676 51.226,2.700 50.546,2.300 ZM39.857,2.120 C38.734,2.181 35.765,2.263 35.765,2.120 C35.765,2.002 36.574,1.599 37.543,1.517 C38.529,1.430 40.929,0.829 41.008,0.690 C41.082,0.601 41.156,0.379 41.130,0.234 L41.891,1.296 C41.875,1.480 40.950,2.062 39.857,2.120 ZM41.130,0.234 L41.040,0.107 C41.094,0.124 41.120,0.173 41.130,0.234 ZM28.669,2.734 C27.367,2.721 26.756,2.761 26.110,2.402 C27.412,2.402 27.992,2.381 28.669,2.734 ZM33.043,0.613 C32.663,0.613 31.689,0.508 31.689,0.360 C31.677,0.294 31.105,0.247 30.252,0.309 L32.226,-0.006 C33.024,0.165 33.720,0.318 33.733,0.352 C33.720,0.445 33.404,0.613 33.043,0.613 ZM28.147,0.621 L28.537,0.545 C29.169,0.417 29.757,0.345 30.252,0.309 L26.392,0.924 L28.147,0.621 ZM3.211,8.149 C5.129,8.149 11.545,8.436 11.666,8.805 L4.038,9.311 C2.478,9.148 1.298,8.157 3.211,8.149 ZM22.830,9.245 C22.801,9.289 23.016,9.313 23.330,9.327 L21.328,9.374 C21.178,9.295 20.959,8.802 21.431,8.802 C21.903,8.802 22.999,9.008 22.830,9.245 ZM31.256,7.474 C31.528,7.200 33.462,7.214 35.501,7.506 C37.572,7.804 41.395,8.784 41.395,8.784 C41.395,8.784 38.663,9.037 36.281,9.024 L26.584,9.251 C28.578,9.144 31.090,8.945 33.488,8.650 C32.084,8.241 31.077,7.619 31.256,7.474 ZM23.330,9.327 L26.584,9.251 C25.096,9.331 23.941,9.356 23.330,9.327 Z" class="cls-1"/>
</svg>
