<svg xmlns="http://www.w3.org/2000/svg" xmlns:xlink="http://www.w3.org/1999/xlink" preserveAspectRatio="xMidYMid" width="121.32" height="6.5" viewBox="0 0 121.32 6.5">
  <defs>
    <style>
      .cls-1 {
        fill: #ed1c24;
        fill-rule: evenodd;
      }
    </style>
  </defs>
  <path d="M120.010,2.813 L119.910,2.713 C119.910,2.613 119.810,2.413 119.810,2.413 C119.810,2.413 120.010,2.413 120.110,2.513 C120.110,2.513 120.210,2.513 120.310,2.313 C120.310,2.313 120.410,2.313 120.510,2.313 C120.710,2.313 120.910,2.413 121.010,2.413 C121.110,2.513 121.210,2.613 121.310,2.713 C120.910,2.713 120.410,2.813 120.010,2.813 ZM120.010,3.912 C120.010,3.912 120.110,4.012 120.210,4.012 L120.310,4.112 L120.510,4.212 C120.310,4.212 120.210,4.212 120.210,4.212 C120.210,4.212 120.210,4.212 120.310,4.312 L120.110,4.412 C120.010,4.312 120.010,4.412 120.010,4.412 L119.910,4.512 C119.810,4.612 119.810,4.712 119.810,4.712 L119.972,4.794 C119.770,4.765 119.610,4.712 119.610,4.712 C119.510,4.712 119.510,4.712 119.410,4.712 C119.310,4.712 119.310,4.712 119.310,4.712 C119.210,4.712 119.010,4.712 118.810,4.712 L118.710,4.712 C118.510,4.812 118.410,4.712 118.310,4.712 C118.210,4.612 118.210,4.612 118.210,4.612 C118.110,4.612 118.010,4.512 118.010,4.612 L118.010,4.712 C117.610,4.712 117.610,4.712 117.610,4.712 C117.110,4.812 116.310,4.712 116.110,4.712 C115.910,4.612 115.610,4.712 115.610,4.712 C115.510,4.812 115.410,4.812 115.310,4.812 C115.210,4.812 115.210,4.912 115.210,4.912 C115.210,5.013 114.810,5.013 114.710,5.013 C114.610,5.013 114.610,4.613 114.910,4.613 C115.110,4.513 115.210,4.313 115.110,4.313 C115.110,4.212 114.110,4.313 113.810,4.313 C113.510,4.313 113.310,4.513 113.310,4.513 C113.310,4.513 112.710,4.513 111.910,4.513 C111.110,4.513 100.210,4.513 99.710,4.513 C99.210,4.513 98.710,4.513 98.410,4.513 C98.110,4.613 97.910,4.613 97.910,4.613 C97.910,4.613 96.710,4.713 96.710,4.613 C96.710,4.513 95.910,4.513 95.610,4.513 C95.601,4.513 95.578,4.511 95.568,4.510 C94.831,4.578 93.919,4.655 93.360,4.621 C92.425,4.558 91.583,4.558 91.583,4.621 C91.583,4.684 91.396,4.810 91.209,4.747 C90.928,4.747 89.900,4.684 89.432,4.684 C88.965,4.684 87.749,4.747 87.749,4.684 C87.732,4.673 87.703,4.662 87.676,4.652 L87.310,4.713 C86.647,4.760 86.102,4.762 85.717,4.751 C85.622,4.806 85.448,4.854 85.317,4.810 C85.130,4.747 84.663,4.684 84.663,4.621 C84.711,4.588 84.633,4.522 84.483,4.457 C84.441,4.475 84.410,4.493 84.410,4.513 C84.310,4.513 83.910,4.613 83.510,4.513 L83.010,4.413 L82.548,4.361 C82.525,4.366 82.512,4.369 82.512,4.369 C82.512,4.369 82.699,4.558 82.605,4.621 C82.578,4.640 78.401,4.659 72.566,4.676 L67.482,5.799 C67.165,5.739 66.697,5.500 66.610,5.413 C66.610,5.413 66.610,5.213 66.710,5.113 C66.810,5.113 67.010,4.913 66.910,4.913 C66.850,4.853 66.862,4.758 66.903,4.691 C65.448,4.694 63.952,4.698 62.433,4.701 C62.422,4.706 62.410,4.713 62.410,4.713 C62.410,4.713 61.812,4.710 60.865,4.704 C53.803,4.719 46.543,4.731 41.646,4.738 C41.691,4.826 41.778,4.913 41.910,4.913 C42.110,4.913 43.110,5.113 43.510,5.013 C43.810,5.013 62.710,5.013 62.710,5.113 C62.710,5.213 62.810,5.313 62.910,5.313 C63.010,5.313 63.310,5.413 63.310,5.413 C63.410,5.513 63.210,5.713 62.810,5.713 C62.510,5.713 43.610,5.913 43.610,6.013 C43.510,6.113 61.810,6.313 62.310,6.513 L43.710,6.213 C43.710,6.213 43.610,6.113 43.310,6.113 C43.110,6.113 42.710,6.013 42.410,6.013 C41.710,5.913 40.710,5.613 40.610,5.613 C40.510,5.513 40.510,5.313 40.610,5.313 C40.710,5.313 40.910,5.013 40.810,4.913 C40.772,4.875 40.691,4.808 40.605,4.740 C40.373,4.740 40.136,4.741 39.918,4.741 C39.873,4.798 39.824,4.855 39.710,4.913 C39.510,4.913 39.510,5.313 39.610,5.313 C39.710,5.313 39.910,5.613 39.910,5.613 L39.810,5.613 C39.810,5.613 39.710,5.713 39.510,5.713 C39.410,5.713 39.010,5.713 39.010,5.713 C39.010,5.613 37.910,5.613 37.910,5.613 C37.910,5.613 37.910,5.713 38.010,5.713 C38.010,5.713 38.110,5.913 38.010,5.913 C37.910,5.913 37.710,5.913 37.710,5.813 C37.710,5.713 37.610,5.413 37.610,5.413 C37.510,5.413 37.310,5.413 37.210,5.413 C37.110,5.413 36.710,5.313 36.710,5.313 C36.710,5.213 37.010,5.113 37.410,5.213 C37.610,5.213 37.910,5.213 38.210,5.313 C38.510,5.313 38.710,5.313 38.710,5.313 L38.710,5.213 C38.710,5.213 38.510,5.013 38.210,5.013 C37.810,5.013 37.210,4.813 37.110,4.813 L37.076,4.745 C36.210,4.746 35.709,4.747 35.709,4.747 C35.709,4.747 35.709,4.684 35.802,4.684 C35.802,4.684 35.615,4.432 35.428,4.432 C35.379,4.415 35.281,4.403 35.165,4.396 C35.154,4.407 35.135,4.413 35.110,4.413 C35.010,4.513 34.110,4.513 34.010,4.513 C34.003,4.513 33.978,4.509 33.966,4.508 C33.892,4.534 33.839,4.558 33.839,4.558 C33.839,4.558 34.026,4.621 34.119,4.621 C34.306,4.621 34.587,4.810 34.493,4.810 C34.399,4.810 34.119,4.873 34.026,4.873 C33.932,4.873 33.371,4.810 33.371,4.747 C33.277,4.684 33.184,4.432 33.090,4.369 C33.012,4.316 32.612,4.177 32.426,4.132 C32.319,4.120 32.236,4.113 32.210,4.113 C32.110,4.113 31.610,4.213 31.510,4.213 C31.510,4.313 30.810,4.313 30.310,4.213 L30.010,4.213 L29.610,4.213 C28.910,4.213 28.210,4.213 28.010,4.213 C27.810,4.213 27.310,4.413 27.410,4.413 C27.510,4.413 27.610,4.813 27.510,4.813 C27.410,4.813 26.810,4.713 26.710,4.513 L26.310,4.313 L26.110,4.213 C25.810,4.113 25.310,5.906 25.010,6.006 C24.810,6.106 24.310,6.306 24.310,6.306 L24.210,6.306 C24.210,6.306 24.214,6.381 24.285,6.399 C24.123,6.385 23.847,6.343 23.710,6.206 C23.410,6.006 23.110,5.306 23.210,5.306 C23.310,5.306 23.710,5.206 23.810,5.206 C23.817,5.199 23.820,5.192 23.827,5.186 C23.732,5.121 23.552,4.999 23.552,4.937 C23.552,4.811 23.365,4.685 23.178,4.685 C22.990,4.685 12.897,4.617 12.897,4.617 L13.548,3.782 C12.723,3.736 12.188,3.706 12.210,3.706 C12.310,3.706 12.410,3.606 12.310,3.606 C12.210,3.606 11.710,3.606 11.510,3.506 L11.410,3.506 L11.010,3.406 C10.610,3.406 10.310,3.406 10.310,3.406 C10.310,3.406 10.310,3.506 10.410,3.506 C10.510,3.506 10.410,3.806 10.010,3.606 L9.510,3.506 L8.810,3.406 C8.610,3.506 8.210,3.606 8.010,3.506 C7.810,3.406 7.310,3.306 7.010,3.306 C6.810,3.306 5.910,3.406 5.910,3.506 C5.810,3.606 5.410,3.606 5.010,3.506 C4.710,3.406 3.710,3.306 3.210,3.306 C2.610,3.306 0.910,3.306 0.710,3.306 C0.510,3.306 0.210,3.206 0.010,3.206 L5.165,2.867 C5.072,2.811 5.010,2.755 5.010,2.705 C4.910,2.505 3.910,3.124 2.510,2.824 L5.210,2.524 C6.004,2.789 6.485,2.728 6.519,2.778 L25.510,1.532 C25.510,1.591 25.440,1.991 25.341,2.308 C25.420,2.198 25.500,2.134 25.578,2.151 C25.656,2.026 25.710,1.932 25.710,1.932 C25.710,1.932 26.310,2.032 26.910,2.032 C27.095,2.032 27.293,2.022 27.486,2.008 L27.410,1.932 C27.410,1.854 27.471,1.958 27.497,2.008 C27.928,1.978 28.310,1.932 28.310,1.932 C28.310,1.932 28.510,1.832 28.710,1.832 C28.910,1.832 29.610,1.832 29.710,1.832 C29.810,1.832 30.010,1.932 30.010,2.032 C30.010,2.083 30.062,2.134 30.127,2.171 C30.318,2.171 30.507,2.171 30.659,2.171 C31.407,2.171 32.342,2.865 32.249,2.865 C32.155,2.865 32.062,2.991 32.155,2.991 C32.342,2.928 32.810,1.972 33.090,2.098 L33.184,2.098 L33.651,2.161 C34.119,2.161 34.493,2.161 34.493,2.161 C34.493,2.161 34.587,2.098 34.400,2.035 C34.213,1.972 34.306,1.720 34.867,1.846 L35.428,1.972 C35.428,1.972 36.176,2.161 36.193,2.371 C36.298,2.756 39.272,2.941 43.676,2.996 L43.510,2.913 C43.510,2.913 43.610,2.813 43.710,2.813 C43.798,2.813 44.039,2.813 44.106,3.000 C52.672,3.090 66.247,2.722 74.908,2.394 C75.225,2.351 75.535,2.312 75.710,2.312 C75.410,2.312 74.910,2.212 74.810,2.212 C74.810,2.212 74.510,2.012 74.410,2.012 C74.210,2.012 73.810,2.012 73.810,2.112 C73.810,2.212 73.810,2.312 73.710,2.312 C73.610,2.312 72.910,2.312 72.210,2.212 L71.810,2.112 L71.210,2.012 C70.610,2.012 69.910,2.012 69.910,1.912 C69.810,1.812 69.610,1.712 69.610,1.712 C69.510,1.712 69.410,1.812 69.510,1.812 C69.510,1.912 69.510,2.012 69.510,2.012 C69.510,2.012 69.510,2.012 69.410,2.012 C69.310,2.012 69.110,1.912 69.110,1.912 C69.010,1.812 67.810,1.812 67.310,1.912 C66.810,2.012 65.110,1.912 65.110,1.812 C65.010,1.712 65.010,1.312 65.010,1.312 C65.010,1.312 65.010,1.112 65.110,1.112 L65.610,1.112 C65.637,1.112 65.689,1.121 65.748,1.132 L65.710,1.113 C65.852,1.042 65.942,1.121 65.947,1.174 C66.035,1.194 66.110,1.212 66.110,1.212 C66.010,1.212 65.810,1.412 65.810,1.512 C65.810,1.612 65.810,1.712 65.710,1.712 C65.610,1.712 65.610,1.812 65.710,1.812 C65.810,1.812 66.210,1.712 66.510,1.712 C66.810,1.612 67.610,1.512 67.610,1.512 C67.610,1.512 67.510,1.512 67.310,1.512 C67.210,1.512 66.810,1.512 66.810,1.412 C66.810,1.312 67.210,1.212 67.710,1.312 C68.210,1.312 69.910,1.412 70.010,1.512 C70.080,1.583 70.699,1.602 71.303,1.538 C71.305,1.529 71.310,1.524 71.310,1.513 C71.328,1.513 71.349,1.521 71.372,1.531 C71.600,1.504 71.823,1.466 72.010,1.412 L72.475,1.490 C72.606,1.422 72.842,1.213 73.010,1.213 C73.210,1.213 74.210,1.313 74.210,1.313 C74.210,1.313 73.710,1.513 73.510,1.413 C73.310,1.413 73.210,1.513 73.210,1.513 C73.210,1.526 73.216,1.538 73.219,1.551 L74.210,1.612 C75.310,1.512 76.510,1.312 77.010,1.312 C77.510,1.312 78.810,1.212 78.910,1.212 C79.010,1.212 79.810,1.112 79.810,1.212 L79.810,1.312 C79.810,1.312 79.410,1.312 79.010,1.412 C78.610,1.412 77.910,1.612 77.910,1.612 C77.910,1.612 78.410,1.612 78.810,1.612 C79.210,1.612 79.910,2.012 79.910,2.012 C79.910,2.012 79.610,2.112 79.210,2.112 C78.965,2.112 78.683,2.188 78.570,2.246 C79.934,2.186 81.042,2.131 81.817,2.084 L81.710,2.012 C81.410,1.912 81.210,1.812 81.410,1.812 C81.510,1.812 82.310,1.812 82.810,1.712 L83.310,1.712 L83.610,1.712 C84.110,1.812 84.910,1.812 85.210,1.812 C85.281,1.812 85.397,1.812 85.511,1.812 C85.545,1.804 85.582,1.797 85.622,1.791 L86.482,1.601 C86.439,1.551 86.410,1.513 86.410,1.513 C86.410,1.513 86.610,1.213 86.710,1.213 C86.738,1.185 86.840,1.158 86.971,1.133 C86.950,1.126 86.910,1.120 86.910,1.112 C86.910,1.012 86.610,0.912 86.310,1.012 L85.810,1.112 L85.510,1.212 C84.210,1.112 83.210,1.012 83.310,1.012 C83.310,0.912 83.110,0.712 82.910,0.712 L89.010,0.712 C89.010,0.712 89.210,0.812 89.310,0.812 C89.310,0.812 89.819,0.812 90.052,0.812 L91.410,0.512 C92.010,0.612 92.310,0.912 92.210,0.912 C92.110,0.912 92.810,1.212 93.110,1.312 C93.510,1.312 94.310,1.312 94.310,1.312 L94.710,1.412 C94.710,1.512 95.110,1.412 95.110,1.412 C95.210,1.312 95.510,1.312 95.610,1.312 C95.710,1.312 95.810,1.412 95.810,1.412 C95.710,1.412 95.510,1.512 95.510,1.512 C95.510,1.512 95.310,1.512 94.910,1.512 C94.610,1.512 94.110,1.512 93.610,1.512 L93.210,1.512 C92.110,1.612 91.310,1.812 89.810,1.812 L89.210,1.812 C88.610,1.912 88.010,1.912 88.010,1.912 C88.010,1.912 87.847,1.875 87.633,1.845 C87.559,1.902 87.484,2.013 87.410,2.013 C87.310,2.013 87.010,2.013 86.910,1.913 C86.845,1.913 86.770,1.869 86.698,1.812 C86.519,1.812 86.321,1.812 86.128,1.812 C86.170,1.822 86.212,1.832 86.253,1.846 C86.627,1.972 87.655,2.098 88.310,2.098 C88.965,2.098 90.835,2.035 91.022,2.098 C91.209,2.161 91.583,2.161 91.770,2.161 C92.051,2.098 92.705,2.098 92.705,2.161 C92.705,2.225 93.173,2.288 93.641,2.288 C94.108,2.288 95.417,2.288 95.511,2.351 C95.698,2.414 95.885,2.414 95.978,2.414 C96.072,2.414 96.446,2.351 96.539,2.414 C96.605,2.414 97.327,2.507 98.301,2.562 C98.410,2.482 98.527,2.412 98.610,2.412 C98.910,2.412 99.210,2.212 99.210,2.212 C99.210,2.112 110.110,2.112 110.410,2.112 C110.710,2.112 110.610,2.212 110.410,2.212 C110.210,2.212 100.010,2.212 100.010,2.212 L99.910,2.212 C99.910,2.212 100.010,2.312 100.110,2.312 C100.110,2.412 110.810,2.412 110.910,2.412 C111.010,2.412 111.510,2.212 111.410,2.212 C111.310,2.212 111.910,2.312 112.010,2.312 C112.110,2.412 112.010,2.512 111.810,2.512 L111.510,2.612 L111.410,2.712 C111.347,2.712 111.163,2.792 110.936,2.851 L111.122,2.855 L111.589,2.918 C111.683,2.918 111.683,2.855 111.683,2.855 C111.776,2.855 111.870,3.044 111.870,3.234 C111.807,3.234 111.483,3.232 111.110,3.213 L111.110,3.312 C111.010,3.412 110.910,3.512 110.810,3.512 C110.777,3.529 110.756,3.545 110.733,3.561 C110.711,3.476 110.584,3.312 110.510,3.312 C110.402,3.258 110.440,3.206 110.498,3.167 C109.793,3.121 103.145,3.110 100.104,3.108 C99.984,3.111 99.902,3.112 99.910,3.112 C100.010,3.112 99.810,3.312 99.810,3.312 C99.810,3.312 100.010,3.412 100.110,3.512 C100.208,3.611 110.200,3.612 110.670,3.612 C110.616,3.669 110.610,3.712 110.610,3.712 C110.710,3.812 111.710,3.712 112.210,3.712 C112.710,3.612 114.210,3.612 114.610,3.612 C115.010,3.612 115.110,3.412 115.110,3.412 C115.110,3.412 115.210,3.312 115.510,3.312 L116.010,3.112 C116.110,2.912 116.410,2.812 116.510,2.812 C116.556,2.812 116.624,2.856 116.684,2.913 C116.691,2.913 116.703,2.913 116.710,2.913 C116.910,2.913 117.210,2.913 117.210,2.913 C117.210,2.913 117.010,3.013 116.810,3.013 C116.801,3.013 116.779,3.009 116.765,3.007 C116.792,3.046 116.810,3.083 116.810,3.112 C116.810,3.112 117.310,3.112 117.410,3.112 C117.510,3.212 117.510,3.212 117.510,3.212 C117.510,3.312 117.610,3.412 117.610,3.412 L117.610,3.212 C117.610,3.212 117.610,3.212 117.610,3.112 C117.697,3.112 117.814,3.112 117.923,3.112 C117.985,3.063 118.060,3.013 118.110,3.013 C118.110,3.013 118.210,3.013 118.310,3.013 C118.410,3.013 118.710,3.113 118.710,3.113 C118.710,3.113 118.678,3.115 118.639,3.120 C118.818,3.157 118.899,3.518 118.710,3.612 C118.710,3.712 118.610,3.712 118.610,3.812 C118.310,3.712 118.010,3.612 117.910,3.712 C117.910,3.812 118.210,4.012 118.310,4.012 C118.410,4.012 118.710,4.112 118.810,4.212 C119.010,4.212 119.210,4.312 119.210,4.312 C119.210,4.312 119.010,4.212 118.810,4.012 C119.010,4.012 119.410,4.012 119.510,3.912 C119.610,3.912 119.810,3.812 120.010,3.812 C120.010,3.912 120.010,3.912 120.010,3.912 ZM87.478,1.381 L88.221,1.217 C88.217,1.215 88.214,1.215 88.210,1.213 C88.110,1.213 87.310,1.213 87.310,1.213 C87.310,1.213 87.390,1.293 87.478,1.381 ZM67.710,4.813 L67.810,5.013 C67.910,5.013 68.010,5.013 68.010,5.013 C68.010,5.013 68.010,5.013 68.010,4.913 C68.010,4.913 68.070,4.789 68.048,4.688 C67.917,4.688 67.789,4.689 67.657,4.689 C67.688,4.725 67.710,4.768 67.710,4.813 ZM38.810,4.813 C38.810,4.813 38.910,4.813 39.010,4.813 C39.063,4.813 39.367,4.783 39.687,4.741 C39.374,4.742 39.059,4.742 38.778,4.743 C38.795,4.784 38.810,4.813 38.810,4.813 ZM28.010,3.513 C28.210,3.513 28.610,3.513 28.610,3.413 L28.510,3.313 C28.542,3.313 28.574,3.313 28.610,3.313 C28.710,3.313 29.010,3.313 29.110,3.213 C29.117,3.213 29.126,3.216 29.134,3.217 C29.158,3.192 29.146,3.171 29.069,3.171 C28.882,3.171 28.321,3.107 28.321,3.107 C28.269,3.107 28.039,3.089 27.739,3.071 C27.873,3.130 27.974,3.213 27.910,3.213 C27.810,3.313 27.810,3.513 28.010,3.513 ZM28.439,2.883 L28.508,3.117 C28.767,3.030 29.018,2.974 29.153,2.926 C29.027,2.906 28.810,2.847 28.810,2.932 C28.810,2.932 28.654,2.932 28.439,2.883 ZM24.712,3.800 C24.720,3.773 24.794,3.542 24.914,3.299 C24.914,3.299 24.914,3.299 24.914,3.299 C24.914,3.299 24.914,3.299 24.914,3.299 C24.914,3.299 24.914,3.299 24.914,3.299 C24.771,3.459 24.622,3.622 24.472,3.768 C24.551,3.789 24.650,3.798 24.712,3.800 ZM25.134,2.698 C25.126,2.701 25.118,2.706 25.110,2.706 C24.910,2.706 24.810,2.806 25.010,2.806 C25.037,2.806 25.071,2.788 25.107,2.760 C25.116,2.739 25.125,2.718 25.134,2.698 ZM26.431,2.698 C26.513,2.844 26.578,2.984 26.612,3.059 C26.731,3.038 26.857,3.019 26.978,3.006 C27.141,2.916 27.316,2.784 27.486,2.649 C27.277,2.677 27.110,2.732 27.110,2.732 C26.927,2.732 26.682,2.711 26.431,2.698 ZM30.378,3.801 C30.055,3.801 29.456,3.759 29.003,3.711 C28.977,3.796 28.973,3.875 29.010,3.913 C29.110,4.013 30.910,4.113 30.910,4.113 C30.910,4.113 31.010,4.013 30.810,3.913 L30.866,3.828 C30.706,3.812 30.539,3.801 30.378,3.801 ZM76.310,2.312 L76.210,2.312 C76.210,2.312 76.082,2.312 75.910,2.312 C75.959,2.329 76.001,2.339 76.044,2.350 C76.158,2.346 76.264,2.342 76.376,2.337 C76.361,2.324 76.342,2.312 76.310,2.312 ZM83.905,2.171 C83.979,2.174 84.048,2.173 84.102,2.161 C84.289,2.098 85.224,1.972 85.317,1.909 C85.340,1.878 85.386,1.851 85.447,1.830 L83.905,2.171 ZM110.510,2.812 C110.510,2.712 110.310,2.712 110.310,2.712 C110.210,2.712 110.210,2.712 110.210,2.812 C110.210,2.822 110.210,2.827 110.210,2.835 L110.510,2.842 L110.510,2.812 ZM98.597,3.107 C98.410,3.107 97.568,3.171 97.007,3.171 C96.539,3.171 95.043,3.234 95.043,3.234 C95.043,3.297 95.137,3.360 95.137,3.360 L95.230,3.360 C95.230,3.423 95.417,3.423 95.791,3.423 C96.072,3.423 97.007,3.423 97.007,3.423 C97.100,3.423 97.475,3.486 97.755,3.423 C97.895,3.399 98.034,3.490 98.149,3.612 C98.542,3.612 99.010,3.612 99.010,3.612 C99.110,3.612 98.810,3.512 98.610,3.512 C98.410,3.512 98.310,3.412 98.310,3.412 C98.310,3.312 98.610,3.212 98.710,3.212 C98.810,3.212 98.910,3.112 98.910,3.112 L98.910,3.108 C98.739,3.107 98.613,3.107 98.597,3.107 ZM120.310,4.412 C120.410,4.412 120.410,4.512 120.510,4.512 C120.510,4.612 120.510,4.712 120.510,4.812 C120.410,4.812 120.310,4.812 120.210,4.812 C120.154,4.812 120.100,4.806 120.046,4.801 C120.104,4.724 120.210,4.512 120.210,4.512 C120.310,4.512 120.310,4.512 120.310,4.412 ZM120.010,4.812 L119.972,4.794 C119.996,4.797 120.021,4.798 120.046,4.801 C120.025,4.829 120.010,4.840 120.010,4.812 ZM68.010,6.113 C67.910,6.113 66.610,6.213 66.410,6.113 C66.356,6.113 66.288,6.098 66.215,6.079 L67.482,5.799 C67.529,5.808 67.572,5.813 67.610,5.813 C67.910,5.813 68.110,6.113 68.010,6.113 ZM65.710,6.013 C65.783,5.939 66.017,6.027 66.215,6.079 L65.610,6.213 C65.610,6.213 65.610,6.013 65.710,6.013 ZM24.310,6.406 C24.299,6.406 24.293,6.401 24.285,6.399 C24.358,6.405 24.410,6.406 24.410,6.406 L24.310,6.406 ZM110.710,3.612 C110.708,3.612 110.679,3.612 110.670,3.612 C110.685,3.596 110.707,3.579 110.733,3.561 C110.741,3.591 110.736,3.612 110.710,3.612 ZM115.410,3.113 C115.466,3.113 115.510,3.113 115.510,3.113 C115.510,3.113 115.510,3.213 115.410,3.113 ZM114.810,3.113 C114.810,3.113 114.810,3.113 115.010,3.113 C115.079,3.113 115.285,3.113 115.410,3.113 C115.410,3.113 114.910,3.213 114.810,3.113 ZM115.210,2.213 C115.210,2.213 115.210,2.213 115.210,2.113 C115.310,2.113 115.310,2.113 115.310,2.113 L115.410,2.113 C115.410,2.213 115.410,2.413 115.410,2.413 L115.410,2.513 C115.410,2.513 115.310,2.513 115.310,2.413 L115.210,2.213 ZM115.110,2.113 C115.110,2.113 115.110,2.113 115.210,2.113 C115.210,2.213 115.110,2.113 115.110,2.113 ZM112.910,2.613 C112.910,2.613 113.010,2.613 113.010,2.713 C113.010,2.713 113.010,2.813 112.910,2.813 C113.010,2.813 112.910,2.713 112.910,2.613 ZM99.810,1.713 C99.810,1.713 99.710,1.713 99.710,1.613 C99.810,1.713 99.810,1.713 99.810,1.713 ZM97.810,1.213 C97.810,1.213 97.910,1.113 98.110,1.113 C98.210,1.113 98.510,1.113 98.510,1.113 L98.510,1.213 L98.310,1.213 C98.210,1.413 97.810,1.313 97.810,1.213 ZM81.410,1.012 C81.310,1.012 81.110,1.012 80.910,1.012 C80.810,1.012 80.110,0.812 79.910,0.612 L81.710,0.512 C81.510,0.612 81.110,0.712 81.210,0.812 C81.310,0.812 81.510,1.012 81.410,1.012 ZM76.710,0.912 C76.710,0.912 76.510,0.812 76.310,0.812 C76.110,0.812 75.510,0.812 75.210,0.812 C74.910,0.812 74.110,0.812 74.110,0.812 C74.110,0.812 73.410,0.812 72.710,0.912 L72.110,0.812 L71.810,0.812 C71.210,0.712 70.610,0.612 70.310,0.612 L78.710,0.312 C78.610,0.412 78.110,0.812 77.810,0.812 C77.510,0.812 76.710,0.912 76.710,0.912 ZM67.910,1.113 C67.910,1.113 68.010,0.913 68.210,0.913 C68.310,1.013 69.010,0.913 69.010,0.913 C69.010,0.913 68.310,1.113 68.210,1.113 C68.010,1.113 67.910,1.113 67.910,1.113 ZM66.710,1.013 C66.510,1.013 65.710,0.813 65.610,0.813 C65.510,0.813 65.310,0.813 65.310,0.813 C65.310,0.713 65.410,0.613 65.510,0.613 L68.210,0.613 C68.210,0.713 68.110,0.813 68.010,0.913 C67.910,1.013 66.910,1.013 66.710,1.013 ZM44.010,0.213 C43.910,0.213 43.610,0.113 43.710,0.113 C43.810,0.113 43.910,0.013 44.010,0.013 C44.110,0.013 62.410,0.013 62.410,0.113 C62.410,0.113 44.210,0.113 44.010,0.213 ZM40.710,0.313 C40.610,0.313 39.910,0.213 39.910,0.113 C39.910,0.113 40.210,0.013 40.610,0.013 C41.010,0.013 42.110,0.013 42.110,0.013 C42.210,0.113 41.910,0.213 41.710,0.313 C41.510,0.313 40.810,0.313 40.710,0.313 ZM39.110,0.913 C38.910,0.913 38.710,0.913 38.710,0.813 C38.710,0.713 39.010,0.613 39.210,0.613 C39.410,0.613 40.010,0.713 40.010,0.713 C40.010,0.713 39.310,0.913 39.110,0.913 ZM36.910,1.313 C36.910,1.313 37.010,1.213 37.010,1.113 C37.010,1.113 37.010,1.113 37.110,1.113 C37.110,1.113 37.210,1.313 37.110,1.313 C37.010,1.313 36.910,1.313 36.910,1.313 ZM2.210,5.806 L2.110,5.906 C2.110,5.906 1.710,5.906 1.710,5.806 C1.710,5.806 1.910,5.706 2.010,5.706 C2.110,5.706 2.210,5.706 2.210,5.806 ZM4.310,4.206 C4.710,4.206 6.210,4.406 6.410,4.506 C6.510,4.606 6.810,4.906 6.810,4.906 L6.710,4.906 C6.710,4.906 6.610,4.906 6.410,4.706 C6.110,4.706 5.310,4.506 5.010,4.506 C4.710,4.506 3.810,4.506 3.810,4.506 C3.810,4.506 3.610,4.406 3.510,4.406 C3.410,4.406 3.210,4.406 3.210,4.406 L3.510,4.206 C3.510,4.206 3.910,4.206 4.310,4.206 ZM5.210,5.006 C5.210,5.006 5.310,5.206 5.110,5.206 C5.010,5.206 4.510,5.206 4.510,5.206 C4.510,5.206 4.710,5.006 4.910,5.006 C5.110,5.006 5.210,4.906 5.210,5.006 ZM5.110,5.706 C5.110,5.806 5.010,5.806 5.010,5.806 C4.910,5.806 4.710,5.606 4.710,5.606 C4.810,5.606 4.910,5.606 4.910,5.606 L5.110,5.706 ZM7.010,4.806 C7.010,4.806 7.110,4.706 7.210,4.706 C7.310,4.706 7.410,4.706 7.410,4.806 C7.410,4.706 7.010,4.806 7.010,4.806 ZM8.010,4.306 C8.110,4.306 8.210,4.406 8.210,4.406 L7.810,4.406 C7.810,4.306 7.910,4.306 8.010,4.306 ZM11.110,4.306 C11.110,4.306 11.110,4.406 11.010,4.406 L10.810,4.306 C11.010,4.206 11.110,4.306 11.110,4.306 ZM11.710,4.006 L11.610,4.006 C11.510,4.006 11.410,3.906 11.410,3.906 C11.510,3.806 11.710,4.006 11.710,4.006 ZM6.310,5.306 C6.210,5.306 6.210,5.106 6.410,5.106 C6.610,5.106 7.610,5.206 7.610,5.206 C7.710,5.206 7.910,5.006 7.810,5.006 C7.710,5.006 7.710,4.806 7.910,4.806 C8.110,4.806 8.710,4.806 8.710,4.706 C8.710,4.606 8.910,4.506 8.910,4.606 C8.910,4.606 9.110,4.806 9.210,5.006 L9.610,5.106 L9.910,5.206 C10.510,5.306 10.910,5.306 10.910,5.206 C10.910,5.206 10.710,5.006 10.510,5.006 C10.310,5.006 10.010,4.706 10.110,4.706 C10.110,4.706 10.310,4.706 10.410,4.706 L10.510,4.706 C10.510,4.706 10.910,4.806 11.210,4.806 C11.510,4.806 12.310,4.906 12.410,4.906 C12.410,4.906 12.510,5.206 12.510,5.306 C12.510,5.406 12.310,5.606 11.910,5.706 C11.510,5.706 10.310,6.006 10.310,5.906 C10.410,5.906 10.510,5.806 10.610,5.706 C10.610,5.706 10.410,5.706 10.310,5.606 C10.210,5.606 9.410,5.506 9.310,5.506 C9.210,5.506 8.710,5.606 8.710,5.706 C8.710,5.706 8.410,5.706 8.110,5.706 C7.810,5.706 6.810,5.506 6.610,5.606 C6.510,5.606 5.810,5.706 5.810,5.606 C5.810,5.606 5.910,5.406 6.010,5.406 C6.110,5.406 6.410,5.306 6.310,5.306 ZM10.010,5.806 L9.910,5.806 L9.910,5.906 L9.810,5.806 C9.810,5.806 9.810,5.706 9.910,5.706 C9.910,5.706 10.110,5.806 10.010,5.806 ZM12.110,4.806 C11.910,4.606 11.910,4.306 11.910,4.306 C11.910,4.306 12.010,4.306 12.110,4.306 C12.210,4.306 12.510,4.306 12.610,4.406 C12.710,4.406 12.810,4.706 12.710,4.706 C12.610,4.706 12.410,4.806 12.410,4.806 C12.410,4.806 12.210,4.806 12.110,4.806 ZM28.510,5.813 L29.310,6.213 C28.410,6.113 27.210,5.913 27.210,5.913 L27.110,5.913 C27.110,5.913 27.110,5.813 27.210,5.813 C27.210,5.913 27.910,5.813 28.510,5.813 ZM29.310,5.913 C29.410,5.913 30.010,5.913 30.210,6.013 C30.410,6.013 31.010,6.213 31.010,6.313 L28.510,5.813 L28.710,5.813 C28.910,5.913 29.210,5.913 29.310,5.913 ZM28.910,5.613 C28.810,5.613 28.710,5.613 28.710,5.513 L28.810,5.413 L29.210,5.513 C29.210,5.513 29.010,5.613 28.910,5.613 ZM30.310,5.613 C30.310,5.713 29.710,5.813 29.710,5.813 C29.710,5.813 29.710,5.713 29.610,5.713 C29.610,5.713 29.510,5.513 29.610,5.513 C29.610,5.513 29.410,5.313 29.010,5.213 C28.510,5.113 28.310,4.513 28.510,4.513 C28.710,4.513 29.710,4.513 30.110,4.613 L30.410,4.713 C30.610,4.913 30.810,5.013 30.910,5.013 C31.010,5.013 31.510,4.813 31.610,4.813 C31.710,4.813 31.910,4.813 31.910,4.913 C31.810,5.013 31.710,5.213 31.610,5.313 C31.510,5.413 31.010,5.513 30.910,5.513 C30.710,5.513 30.310,5.513 30.310,5.613 ZM32.110,4.313 C32.210,4.313 32.310,4.313 32.310,4.313 L32.110,4.413 C32.210,4.413 32.010,4.313 32.010,4.313 C32.010,4.313 32.010,4.313 32.110,4.313 ZM32.410,5.213 L32.510,4.913 C32.310,4.813 32.410,4.713 32.710,4.713 C33.010,4.713 33.510,4.813 33.510,4.913 C33.510,4.913 33.810,5.013 34.110,5.013 C34.510,5.113 35.310,5.213 35.410,5.213 C35.510,5.313 35.610,5.713 35.510,5.813 C35.410,5.913 35.010,5.913 34.910,5.813 L34.610,5.713 C34.010,5.613 33.510,5.613 33.110,5.513 C32.710,5.513 32.510,5.413 32.510,5.413 C32.510,5.413 32.310,5.413 32.410,5.313 L32.410,5.213 ZM37.410,5.513 C37.410,5.513 37.310,5.613 37.210,5.613 C37.110,5.613 36.710,5.513 36.610,5.413 C36.610,5.413 36.610,5.413 36.810,5.413 C36.910,5.413 37.410,5.513 37.410,5.513 ZM41.110,6.113 C41.410,6.113 42.110,6.213 42.610,6.213 L40.210,6.413 C40.010,6.413 39.710,6.113 39.710,6.013 C39.710,6.013 40.410,6.013 41.110,6.113 Z" class="cls-1"/>
</svg>
