<svg xmlns="http://www.w3.org/2000/svg" xmlns:xlink="http://www.w3.org/1999/xlink" preserveAspectRatio="xMidYMid" width="157.69" height="9.938" viewBox="0 0 157.69 9.938">
  <defs>
    <style>
      .cls-1 {
        fill: #ed1c24;
        fill-rule: evenodd;
      }
    </style>
  </defs>
  <path d="M157.014,4.461 C156.987,4.494 156.368,4.494 155.393,4.477 C154.431,4.442 153.127,4.406 151.717,4.371 L150.676,4.477 C147.849,4.770 145.636,5.110 141.492,5.206 L139.977,5.231 C138.183,5.461 136.668,5.477 136.649,5.406 C136.649,5.324 135.597,5.176 134.534,5.091 C133.493,4.998 130.086,4.976 129.127,4.992 C128.147,4.998 126.128,4.855 124.630,4.639 L123.794,4.686 L122.466,4.762 C121.003,4.833 118.982,4.948 118.658,4.965 C118.335,4.965 118.751,5.250 119.598,5.587 L120.417,6.104 L121.189,6.584 C121.310,6.745 121.417,6.962 121.417,7.003 C121.417,7.003 120.576,6.890 119.540,6.702 L118.283,6.515 L117.116,6.354 C116.075,6.696 115.202,6.770 115.202,6.702 C115.185,6.630 114.336,6.584 114.018,6.584 C113.679,6.592 111.665,6.318 110.989,6.230 C110.340,6.140 111.665,5.691 112.714,5.658 C113.755,5.631 114.667,5.414 114.667,5.414 C114.667,5.414 112.720,4.357 111.619,4.417 C110.512,4.455 109.187,4.513 109.066,4.516 C108.882,4.513 110.918,3.965 111.989,3.864 C113.071,3.765 114.147,3.672 114.246,3.667 C114.336,3.672 114.358,3.475 114.344,3.404 C114.344,3.343 112.032,3.415 111.802,3.527 C111.531,3.620 107.677,3.075 106.598,3.782 C104.999,4.829 81.713,4.536 78.893,4.546 L82.955,4.162 L81.284,4.001 C80.058,4.289 78.236,4.423 77.019,4.425 L72.948,2.011 C74.422,2.032 75.809,2.017 76.198,1.990 C76.732,1.945 78.068,2.128 79.387,2.400 C78.681,2.391 78.158,2.396 78.186,2.412 C78.222,2.454 78.857,2.451 79.560,2.434 C79.766,2.478 79.971,2.524 80.172,2.571 L80.999,2.623 L82.676,2.771 C83.873,2.566 81.921,2.457 80.227,2.415 C80.629,2.402 81.002,2.387 81.238,2.376 C82.062,2.349 83.785,2.275 84.210,2.264 C84.609,2.256 85.207,2.593 85.264,2.502 C86.027,1.295 109.332,0.328 109.476,1.502 C109.573,2.303 110.482,1.286 110.770,0.900 C111.060,0.522 111.309,0.119 111.307,0.078 C111.279,0.040 111.498,0.004 111.578,0.004 C111.578,0.004 113.397,1.327 113.966,1.741 C114.596,2.152 116.336,2.617 116.722,2.700 C117.075,2.771 117.793,2.834 117.965,2.826 C118.116,2.826 117.626,2.275 117.335,2.196 C117.075,2.130 118.045,1.662 118.688,1.503 C119.305,1.363 121.263,1.946 122.071,2.018 C122.838,2.092 123.304,2.642 123.263,2.820 C123.208,2.990 125.955,3.250 129.387,3.404 L130.231,3.226 L131.606,2.938 C132.494,2.735 133.302,3.072 133.332,3.242 C133.332,3.423 138.073,3.510 139.528,3.543 C140.993,3.601 144.102,3.387 144.173,3.174 C144.253,2.976 144.390,2.639 144.390,2.639 C144.332,2.617 144.274,2.434 144.274,2.355 C144.261,2.289 142.195,2.355 141.694,2.475 C141.182,2.590 139.692,2.593 139.613,2.571 C139.517,2.533 138.922,2.327 138.906,2.322 C138.906,2.322 143.866,1.683 145.573,1.859 C147.266,2.020 148.156,2.754 147.893,2.820 C147.624,2.902 149.356,3.812 150.279,3.976 C151.226,4.138 153.390,4.075 153.513,4.001 C153.601,3.913 154.787,4.140 154.743,4.245 C154.683,4.340 155.743,4.201 155.795,4.135 C155.877,4.053 156.778,3.987 157.091,3.976 C157.428,3.968 157.699,4.066 157.699,4.113 C157.650,4.129 157.126,4.406 157.014,4.461 ZM79.387,2.400 C79.649,2.403 79.932,2.408 80.227,2.415 C80.007,2.423 79.783,2.429 79.560,2.434 C79.502,2.422 79.445,2.411 79.387,2.400 ZM78.839,5.877 C77.686,5.856 76.773,5.744 76.625,5.570 C76.417,5.340 75.883,5.042 75.710,5.050 C75.560,5.050 75.198,5.239 75.332,5.447 C75.439,5.658 75.267,6.061 75.267,6.093 C75.267,6.124 75.146,6.219 74.965,6.230 C74.812,6.230 74.245,6.072 74.017,5.869 C73.842,5.677 70.553,5.603 69.169,5.754 C67.811,5.904 63.209,5.778 63.053,5.488 C62.867,5.200 62.689,4.253 62.689,4.253 C62.689,4.253 62.727,3.683 62.867,3.680 L64.102,3.680 C64.414,3.680 65.537,3.899 65.345,3.960 C65.126,4.023 64.450,4.562 64.483,4.699 C64.483,4.839 64.414,5.231 64.261,5.250 C64.058,5.258 63.894,5.414 64.146,5.414 C64.392,5.414 65.584,5.250 66.299,5.069 C67.027,4.929 69.268,4.505 69.312,4.494 C69.312,4.461 68.978,4.371 68.556,4.384 C68.145,4.395 67.063,4.283 67.052,4.140 C67.036,4.001 68.090,3.683 69.460,3.776 C70.818,3.853 75.560,4.066 75.751,4.299 C75.813,4.384 76.316,4.426 77.019,4.425 L79.307,5.782 C79.068,5.803 78.903,5.835 78.839,5.877 ZM79.307,5.782 C79.710,5.746 80.231,5.735 80.520,5.754 C80.729,5.764 80.965,5.877 81.174,6.006 L81.895,6.124 L82.911,6.282 C83.785,6.313 82.881,6.344 81.676,6.371 C81.704,6.393 81.725,6.410 81.739,6.419 C81.824,6.507 83.292,6.789 84.086,6.770 C84.856,6.745 85.511,6.803 85.511,6.847 C85.511,6.888 85.738,6.899 85.809,6.899 C85.897,6.899 85.990,7.093 85.990,7.167 C86.001,7.238 85.415,7.148 84.714,7.003 L84.210,6.934 C83.649,6.864 82.560,6.973 81.537,7.104 L80.347,6.398 C79.344,6.417 78.485,6.431 78.556,6.439 C78.698,6.439 78.797,6.061 78.772,5.907 C78.771,5.895 78.823,5.887 78.839,5.877 C79.044,5.880 79.254,5.881 79.471,5.879 L79.307,5.782 ZM79.097,7.434 L79.394,7.400 C79.782,7.354 80.634,7.220 81.537,7.104 L82.073,7.422 C82.187,7.399 80.513,7.400 79.097,7.434 ZM79.097,7.434 L77.469,7.619 C76.688,7.524 77.781,7.465 79.097,7.434 ZM62.631,1.662 C62.343,1.626 63.053,0.596 64.677,0.612 C66.299,0.604 70.553,0.591 70.553,0.591 L72.948,2.011 C72.001,1.997 71.019,1.969 70.238,1.919 C68.260,1.859 62.943,1.673 62.631,1.662 ZM49.534,2.130 L58.637,0.700 C59.366,0.725 61.297,0.854 61.327,0.914 C61.333,0.999 61.157,1.248 60.881,1.352 C60.637,1.462 51.862,1.837 49.534,2.130 ZM52.577,3.409 C53.498,3.510 60.837,3.782 60.837,3.782 C60.818,3.820 60.697,4.140 60.593,4.455 C60.456,4.762 59.665,5.543 59.602,5.628 C59.522,5.694 58.903,5.839 58.353,5.795 C57.799,5.759 50.707,5.683 50.624,5.622 C50.531,5.543 50.737,5.231 51.295,5.091 C51.827,4.938 51.556,4.469 50.898,4.442 C50.271,4.406 49.734,4.491 49.762,4.587 C49.762,4.694 49.534,5.069 49.195,5.190 C48.874,5.310 47.214,5.543 47.214,5.543 C47.214,5.507 47.154,5.400 47.154,5.400 C47.083,5.389 46.987,4.921 47.329,4.792 C47.669,4.672 47.967,4.162 47.466,4.102 C46.987,4.012 45.483,3.913 45.253,3.943 C45.020,3.976 42.949,4.066 41.210,4.031 C39.441,4.012 39.435,2.779 42.215,2.470 L42.854,2.554 L43.390,2.626 C44.604,2.990 46.392,3.283 47.346,3.264 C48.332,3.242 51.654,3.289 52.577,3.409 ZM40.501,6.159 C40.416,6.208 39.416,6.293 39.416,6.293 C39.416,6.293 39.098,5.839 39.164,5.721 C39.221,5.622 39.547,5.592 39.882,5.647 C40.219,5.713 41.106,5.904 41.131,5.904 C41.131,5.904 40.605,6.110 40.501,6.159 ZM37.782,2.602 C37.829,2.652 37.900,2.721 38.025,2.820 C36.937,2.700 37.236,2.768 36.630,2.448 C37.046,2.474 37.283,2.476 37.431,2.477 C37.071,2.232 37.054,2.034 37.444,2.029 C37.830,2.018 38.986,2.064 39.090,2.130 C39.156,2.196 39.473,2.379 39.556,2.379 C39.635,2.379 39.871,2.412 39.871,2.437 C39.871,2.478 39.816,2.579 39.747,2.571 C39.667,2.571 38.433,2.708 37.782,2.602 ZM34.880,1.612 L35.140,1.609 C35.052,1.614 34.965,1.617 34.880,1.612 ZM36.033,1.404 C36.091,1.327 36.384,1.273 36.455,1.270 C36.521,1.270 36.606,1.363 36.606,1.388 C36.606,1.421 36.833,1.462 36.921,1.448 C37.006,1.448 37.077,1.541 37.082,1.585 L35.140,1.609 C35.552,1.584 35.954,1.463 36.033,1.404 ZM36.176,2.261 C36.184,2.363 35.809,2.779 35.310,2.938 C34.792,3.105 32.913,3.620 31.941,3.560 C30.938,3.510 26.759,2.412 26.304,2.144 C25.841,1.872 26.548,1.722 27.898,1.815 L29.043,1.990 L30.985,2.275 C32.404,2.245 33.689,2.209 34.644,2.182 C35.570,2.182 36.154,2.209 36.176,2.261 ZM27.671,4.357 C27.605,4.135 27.835,3.968 28.169,4.012 C28.490,4.053 29.355,4.135 29.355,4.135 C29.355,4.135 27.701,4.587 27.671,4.357 ZM35.652,3.924 C35.652,3.869 35.765,3.812 35.937,3.798 C36.091,3.812 36.540,3.853 36.540,3.916 C36.551,3.990 36.447,4.179 36.277,4.179 C36.132,4.184 35.669,4.001 35.652,3.924 ZM26.591,5.340 C27.397,5.310 30.144,5.266 30.875,5.250 C31.615,5.250 33.938,5.151 33.938,5.151 C33.927,5.107 32.620,4.631 32.708,4.505 C32.831,4.371 33.179,4.253 33.516,4.253 C33.842,4.245 34.992,4.417 35.384,4.655 C35.767,4.880 36.597,5.754 36.518,5.754 C36.411,5.759 34.894,5.811 33.248,5.863 C31.590,5.896 28.342,5.951 27.860,5.959 C27.361,6.009 25.978,6.050 25.794,5.970 C25.630,5.880 25.794,5.343 26.591,5.340 ZM42.566,5.885 C42.566,5.885 41.813,5.513 41.903,5.422 C41.985,5.343 42.155,5.296 42.311,5.324 C42.486,5.348 42.947,5.839 42.864,5.839 C42.785,5.836 42.566,5.858 42.566,5.885 ZM43.223,5.110 C43.199,5.102 43.336,5.077 43.486,5.077 C43.651,5.069 44.089,5.102 44.089,5.121 C44.089,5.165 43.223,5.137 43.223,5.110 ZM26.687,6.343 C26.975,6.365 27.950,6.515 27.956,6.573 C27.956,6.581 27.931,6.600 27.896,6.624 C28.381,6.623 28.885,6.622 29.397,6.621 C29.364,6.553 29.354,6.495 29.385,6.463 C29.531,6.348 29.909,6.266 30.199,6.293 C30.514,6.307 31.459,6.488 31.475,6.559 C31.475,6.573 31.470,6.594 31.462,6.617 C31.826,6.617 32.193,6.616 32.560,6.615 C32.563,6.574 32.577,6.543 32.609,6.532 C32.746,6.488 33.532,6.252 33.949,6.315 C34.126,6.350 34.485,6.473 34.846,6.611 C35.329,6.610 35.801,6.610 36.270,6.609 C36.075,6.586 35.919,6.561 35.888,6.532 C35.822,6.419 35.704,6.080 35.924,5.992 C36.140,5.904 38.320,6.343 38.446,6.455 C38.511,6.512 38.482,6.563 38.399,6.605 C41.713,6.599 44.151,6.596 43.993,6.597 C43.519,6.603 43.352,6.658 43.626,6.712 C43.736,6.744 39.831,6.764 35.262,6.778 C35.581,6.912 35.837,7.035 35.872,7.085 C35.946,7.219 35.557,7.312 35.001,7.290 C34.442,7.271 32.817,7.093 32.708,6.986 C32.667,6.945 32.623,6.866 32.593,6.785 C32.184,6.786 31.775,6.787 31.367,6.788 C31.318,6.852 31.255,6.911 31.179,6.940 C30.993,7.011 29.788,7.195 29.788,7.162 C29.788,7.139 29.624,6.964 29.501,6.792 C28.857,6.793 28.223,6.794 27.617,6.795 C27.507,6.859 27.406,6.916 27.380,6.934 C27.265,6.978 25.882,7.044 25.427,6.992 C25.259,6.972 25.162,6.892 25.128,6.799 C22.875,6.802 21.332,6.803 21.332,6.803 C21.332,6.789 21.568,6.778 21.628,6.778 C21.743,6.778 21.773,6.669 21.773,6.636 C21.773,6.636 23.122,6.633 25.136,6.629 C25.177,6.536 25.278,6.457 25.436,6.439 C25.830,6.354 26.392,6.315 26.687,6.343 ZM22.066,4.880 C22.757,4.855 24.710,4.762 24.710,4.762 C24.710,4.762 25.288,5.110 25.411,5.326 L20.437,5.420 C20.426,5.307 21.357,4.938 22.066,4.880 ZM18.566,5.447 C18.547,5.420 18.084,5.077 18.056,5.058 C18.029,5.050 18.303,4.672 18.547,4.666 C18.785,4.650 18.949,4.770 18.916,4.905 C18.889,5.028 18.615,5.447 18.566,5.447 ZM12.745,5.176 C12.419,5.176 11.685,4.801 11.921,4.751 C12.167,4.718 12.882,4.606 13.005,4.587 C13.110,4.576 14.548,4.718 14.591,4.888 L13.337,5.310 C13.331,5.266 13.074,5.176 12.745,5.176 ZM6.804,5.190 C7.105,5.102 8.878,4.962 8.878,4.962 C8.878,4.992 8.754,5.091 8.585,5.091 L6.804,5.190 ZM1.690,5.253 L0.011,4.872 C0.501,4.938 1.759,5.151 1.690,5.253 ZM45.839,5.970 C46.039,6.167 47.022,6.515 47.118,6.419 C47.214,6.343 48.964,6.252 49.370,6.365 C49.775,6.477 50.917,6.748 50.926,6.789 C50.885,6.830 50.586,7.148 50.539,7.181 C50.539,7.205 50.181,7.181 49.734,7.027 L49.195,6.934 L46.573,6.491 C45.253,6.025 44.335,5.631 44.579,5.631 C44.807,5.628 45.631,5.784 45.839,5.970 ZM64.792,7.600 L62.689,7.112 C62.954,7.066 64.710,7.430 64.792,7.600 ZM73.363,7.348 C74.511,7.378 75.447,7.507 75.483,7.646 L68.194,7.707 C68.520,7.605 72.240,7.337 73.363,7.348 ZM128.196,9.934 L128.785,9.545 C128.785,9.575 128.530,9.786 128.196,9.934 ZM139.341,7.493 C141.398,7.411 143.910,7.312 144.244,7.301 L139.341,7.493 Z" class="cls-1"/>
</svg>
