<?xml version="1.0" encoding="utf-8"?>
<!-- Generator: Adobe Illustrator 16.0.4, SVG Export Plug-In . SVG Version: 6.00 Build 0)  -->
<!DOCTYPE svg PUBLIC "-//W3C//DTD SVG 1.1//EN" "http://www.w3.org/Graphics/SVG/1.1/DTD/svg11.dtd">
<svg version="1.1" id="Слой_1" xmlns="http://www.w3.org/2000/svg" xmlns:xlink="http://www.w3.org/1999/xlink" x="0px" y="0px"
	 width="283.46px" height="170.08px" viewBox="0 0 283.46 170.08" enable-background="new 0 0 283.46 170.08" xml:space="preserve">
<path d="M195.904,108.729c-8.465,0-16.594-1.338-24.18-3.867c-2.364-0.714-5.012-0.182-6.895,1.65l-14.898,14.887
	c-19.162-9.762-34.878-25.387-44.623-44.605l14.887-14.973c1.905-1.769,2.438-4.417,1.701-6.78c-2.5-7.58-3.86-15.704-3.86-24.163
	c0-3.736-3.051-6.78-6.77-6.78H87.563c-3.72,0-6.77,3.044-6.77,6.78c0,63.57,51.518,115.104,115.11,115.104
	c3.719,0,6.764-3.033,6.764-6.774v-23.688C202.673,111.784,199.623,108.729,195.904,108.729z"/>
</svg>
