<?xml version="1.0" encoding="utf-8"?>
<!-- Generator: Adobe Illustrator 19.1.1, SVG Export Plug-In . SVG Version: 6.00 Build 0)  -->
<svg version="1.1" id="Слой_1" xmlns="http://www.w3.org/2000/svg" xmlns:xlink="http://www.w3.org/1999/xlink" x="0px" y="0px"
	 viewBox="-262 379.8 86.9 35.2" style="enable-background:new -262 379.8 86.9 35.2;" xml:space="preserve">
<style type="text/css">
	.st0{fill:#FFFFFF;}
</style>
<g>
	<path class="st0" d="M-179.8,400.9c0,0-1.7,0.2-3.6,0.2c-2.3,0-2.8-0.8-2.8-2.6v-2.2c0-1.9,0.4-2.6,2.8-2.6c1.7,0,3.4,0.2,3.4,0.2
		l0.2-3.4c0,0-2.1-0.3-4-0.3c-4.9,0-6.6,1.6-6.6,5.5v3.4c0,4.3,2.2,5.5,6.6,5.5c1.8,0,4.2-0.3,4.2-0.3L-179.8,400.9z M-204.2,393.9
		h4v10.5h4.2v-10.5h4l0.2-3.5h-12.8L-204.2,393.9z M-210.6,390.4l-3.4,8h-0.2l-3.5-8h-3.9l-0.9,14h4l0.4-6.8h0.2l2.5,5.4h2.7
		l2.2-5.4h0.2l0.5,6.8h4.1l-0.9-14H-210.6L-210.6,390.4z M-232.4,383.4h-22.4c-1.5,0-2.8,1.3-2.8,2.8v22.4c0,1.5,1.3,2.8,2.8,2.8
		h22.4c1.5,0,2.8-1.3,2.8-2.8v-22.4C-229.6,384.6-230.8,383.4-232.4,383.4z M-231,408.6c0,0.8-0.6,1.4-1.4,1.4h-22.4
		c-0.8,0-1.4-0.6-1.4-1.4v-22.4c0-0.8,0.6-1.4,1.4-1.4h22.4c0.8,0,1.4,0.6,1.4,1.4C-231,386.2-231,408.6-231,408.6z M-243.6,387.6
		c-1.5,0-3.2,1.4-4.6,3.8c-1.5,2.5-2.4,5.5-2.4,8.1c0,3.9,2.2,7.7,7,7.7c4.8,0,7-3.9,7-7.7c0-2.6-0.9-5.7-2.4-8.1
		C-240.4,389-242.1,387.6-243.6,387.6z"/>
</g>
</svg>
