<svg xmlns="http://www.w3.org/2000/svg" xmlns:xlink="http://www.w3.org/1999/xlink" preserveAspectRatio="xMidYMid" width="80" height="80" viewBox="0 0 80 80">
  <defs>
    <style>
      .cls-1 {
        fill: #fff;
        fill-rule: evenodd;
      }
    </style>
  </defs>
  <g>
    <path d="M40.000,80.000 C17.908,80.000 -0.000,62.091 -0.000,40.000 C-0.000,17.908 17.908,-0.000 40.000,-0.000 C62.091,-0.000 80.000,17.908 80.000,40.000 C80.000,62.091 62.091,80.000 40.000,80.000 ZM40.000,2.000 C19.013,2.000 2.000,19.013 2.000,40.000 C2.000,60.987 19.013,78.000 40.000,78.000 C60.987,78.000 78.000,60.987 78.000,40.000 C78.000,19.013 60.987,2.000 40.000,2.000 Z" class="cls-1"/>
    <path d="M52.772,36.892 L41.116,48.548 C40.530,49.134 39.580,49.134 38.994,48.548 C38.984,48.538 38.981,48.524 38.971,48.513 L27.338,36.881 C26.753,36.295 26.753,35.345 27.338,34.759 C27.924,34.173 28.874,34.173 29.460,34.759 L40.061,45.360 L50.651,34.770 C51.237,34.184 52.187,34.184 52.772,34.770 C53.358,35.356 53.358,36.306 52.772,36.892 Z" class="cls-1"/>
  </g>
</svg>
